<svg xmlns="http://www.w3.org/2000/svg" data-name="Layer 1" viewBox="0 0 100 26.88">
  <path d="M39.07 5.93c1.61 0 3.07.51 4.35 1.55V6.35h3.42v20.54h-3.42v-7.33c-1.28 1.03-2.74 1.55-4.35 1.55-1.97 0-3.63-.72-4.99-2.15-1.32-1.45-1.99-3.26-1.99-5.43s.66-3.97 1.99-5.41c1.34-1.45 3-2.18 4.99-2.18Zm3.17 4.63c-.73-.79-1.64-1.18-2.73-1.18s-2.02.39-2.76 1.18-1.1 1.77-1.1 2.95.37 2.16 1.1 2.95 1.65 1.18 2.76 1.18 1.99-.4 2.73-1.18c.75-.81 1.13-1.79 1.13-2.95s-.38-2.14-1.13-2.95" fill="#000000"/>
  
  <path d="M53.21 6.34V8.1c.99-1.45 2.56-2.18 4.72-2.18v3.83q-.69-.3-1.41-.3c-.96 0-1.75.32-2.37.95-.62.64-.94 1.43-.94 2.38v7.88h-3.44V6.34z" fill="#000000"/>
  
  <path d="M59.77 3.53h3.44v2.81h3.55v3h-3.55v6.31c0 .49.17.91.5 1.24s.75.5 1.27.5h1.79v3.28h-2.12c-1.36 0-2.52-.43-3.47-1.29-.94-.86-1.41-1.94-1.41-3.23z" fill="#000000"/>
  
  <path d="M68.9 15.5V6.34h3.45v8.16c0 .94.31 1.72.92 2.36.62.63 1.39.95 2.33.95s1.69-.32 2.32-.95c.62-.64.94-1.42.94-2.36V6.34h3.44v14.33h-3.44v-1.74c-1.05 1.44-2.48 2.15-4.3 2.15-1.64 0-2.99-.53-4.05-1.6s-1.6-2.4-1.6-4" fill="#000000"/>
  
  <path d="M85.22 20.68V0h3.44v7.47c1.29-1.03 2.73-1.55 4.33-1.55 1.99 0 3.65.73 4.99 2.18 1.34 1.42 2.01 3.22 2.01 5.41s-.67 3.98-2.01 5.43c-1.36 1.44-3.02 2.15-4.99 2.15-1.6 0-3.04-.51-4.33-1.55v1.13h-3.44Zm10.06-10.12c-.73-.79-1.64-1.18-2.73-1.18s-1.99.39-2.73 1.18c-.73.79-1.1 1.77-1.1 2.95s.37 2.16 1.1 2.95c.74.79 1.65 1.18 2.73 1.18s1.99-.4 2.73-1.18c.75-.81 1.13-1.79 1.13-2.95s-.38-2.14-1.13-2.95" fill="#000000"/>
  
  <path d="M49.9 26.76c-.09-.09-.13-.2-.13-.33a.445.445 0 0 1 .46-.46.445.445 0 0 1 .46.46.445.445 0 0 1-.46.46c-.13 0-.24-.04-.33-.13" fill="#000000"/>
  
  <path d="M54.61 24.34l-.7.21a1.04 1.04 0 0 0-.98-.6c-.31 0-.57.11-.79.33-.21.22-.31.49-.31.8s.1.58.31.8c.22.21.48.32.79.32a1.041 1.041 0 0 0 .98-.6l.7.21c-.13.33-.35.6-.65.79-.3.2-.64.3-1.03.3-.52 0-.95-.17-1.3-.52s-.52-.78-.52-1.3.17-.95.52-1.3.78-.52 1.3-.52c.38 0 .73.1 1.03.29.3.2.52.46.65.79" fill="#000000"/>
  
  <path d="M56.86 26.88c-.52 0-.95-.17-1.3-.52s-.52-.78-.52-1.3.17-.95.52-1.3.78-.52 1.3-.52.95.17 1.3.52.52.78.52 1.3-.17.95-.52 1.3-.78.52-1.3.52m0-.69c.32 0 .58-.11.78-.32.21-.22.32-.49.32-.8s-.11-.59-.32-.8q-.3-.33-.78-.33c-.48 0-.57.11-.79.33-.21.22-.31.49-.31.8s.1.58.31.8c.22.21.48.32.79.32" fill="#000000"/>
  
  <path d="M59.99 26.8h-.69v-3.46h.69v.44c.24-.35.59-.53 1.06-.53.24 0 .45.05.65.16s.35.26.47.45c.05-.09.12-.17.19-.25.09-.09.23-.18.41-.25s.36-.11.56-.11c.4 0 .72.12.98.36.26.25.39.55.39.92v2.26h-.69v-2.07c0-.23-.08-.42-.23-.58a.77.77 0 0 0-.58-.24c-.24 0-.45.08-.61.24a.77.77 0 0 0-.24.58v2.06h-.69v-2.07c0-.23-.08-.42-.24-.58a.76.76 0 0 0-.57-.24c-.24 0-.45.08-.61.24-.17.15-.25.35-.25.58v2.06Z" fill="#000000"/>
  
  <path d="M6.09 0H20.8c3.34 0 6.08 2.74 6.08 6.09V20.8c0 3.34-2.74 6.08-6.08 6.08H6.09C2.74 26.88 0 24.14 0 20.8V6.09C0 2.74 2.74 0 6.09 0m-.94 5.15h10.83v10.83H5.15zm15.21 17.83c-1.44 0-2.62-1.18-2.62-2.62s1.18-2.62 2.62-2.62 2.62 1.18 2.62 2.62-1.18 2.62-2.62 2.62" style="fill:#2f67fd;fill-rule:evenodd"/>
</svg>